REM DIRINDEX 1\2,1\3,1\4,1\5
REM DIRNAME folder01,folder02,folder03,folder04,folder05
TITLE ""
FILE "Round-10-240-241.mp3" MP3
  TRACK 01 AUDIO
    TITLE "0:"
    INDEX 01 00:00:00
  TRACK 02 AUDIO
    TITLE "2:cjc093_2715"
    INDEX 01 00:00:01
  TRACK 03 AUDIO
    TITLE "0:"
    INDEX 01 00:01:44
  TRACK 04 AUDIO
    TITLE "3:cjc093_2716"
    INDEX 01 00:02:02
  TRACK 05 AUDIO
    TITLE "0:"
    INDEX 01 00:04:56
  TRACK 06 AUDIO
    TITLE "4:cjc093_2717"
    INDEX 01 00:04:66
  TRACK 07 AUDIO
    TITLE "0:"
    INDEX 01 00:08:58
  TRACK 08 AUDIO
    TITLE "2:cjc093_2718"
    INDEX 01 00:09:69
  TRACK 09 AUDIO
    TITLE "0:"
    INDEX 01 00:11:05
  TRACK 10 AUDIO
    TITLE "3:cjc093_2719"
    INDEX 01 00:11:31
  TRACK 11 AUDIO
    TITLE "0:"
    INDEX 01 00:13:57
  TRACK 12 AUDIO
    TITLE "4:cjc093_2720"
    INDEX 01 00:13:73
  TRACK 13 AUDIO
    TITLE "0:"
    INDEX 01 00:16:26
  TRACK 14 AUDIO
    TITLE "2:cjc093_2721"
    INDEX 01 00:17:37
  TRACK 15 AUDIO
    TITLE "0:"
    INDEX 01 00:18:50
  TRACK 16 AUDIO
    TITLE "3:cjc093_2722"
    INDEX 01 00:19:01
  TRACK 17 AUDIO
    TITLE "0:"
    INDEX 01 00:20:26
  TRACK 18 AUDIO
    TITLE "4:cjc093_2723"
    INDEX 01 00:20:57
  TRACK 19 AUDIO
    TITLE "0:"
    INDEX 01 00:22:48
  TRACK 20 AUDIO
    TITLE "2:cjc093_2724"
    INDEX 01 00:23:59
  TRACK 21 AUDIO
    TITLE "0:"
    INDEX 01 00:24:72
  TRACK 22 AUDIO
    TITLE "3:cjc093_2725"
    INDEX 01 00:25:23
  TRACK 23 AUDIO
    TITLE "0:"
    INDEX 01 00:26:34
  TRACK 24 AUDIO
    TITLE "4:cjc093_2726"
    INDEX 01 00:27:06
  TRACK 25 AUDIO
    TITLE "0:"
    INDEX 01 00:31:00
  TRACK 26 AUDIO
    TITLE "3:cjc093_2727"
    INDEX 01 00:32:11
  TRACK 27 AUDIO
    TITLE "0:"
    INDEX 01 00:33:30
  TRACK 28 AUDIO
    TITLE "4:cjc093_2728"
    INDEX 01 00:33:64
  TRACK 29 AUDIO
    TITLE "0:"
    INDEX 01 00:37:46
  TRACK 30 AUDIO
    TITLE "2:cjc093_2729"
    INDEX 01 00:38:59
  TRACK 31 AUDIO
    TITLE "0:"
    INDEX 01 00:39:72
  TRACK 32 AUDIO
    TITLE "3:cjc093_2730"
    INDEX 01 00:40:36
  TRACK 33 AUDIO
    TITLE "0:"
    INDEX 01 00:41:67
  TRACK 34 AUDIO
    TITLE "4:cjc093_2731"
    INDEX 01 00:42:39
  TRACK 35 AUDIO
    TITLE "0:"
    INDEX 01 00:46:49
  TRACK 36 AUDIO
    TITLE "3:cjc093_2732"
    INDEX 01 00:47:62
  TRACK 37 AUDIO
    TITLE "0:"
    INDEX 01 00:49:18
  TRACK 38 AUDIO
    TITLE "4:cjc093_2733"
    INDEX 01 00:49:53
  TRACK 39 AUDIO
    TITLE "0:"
    INDEX 01 00:53:31
  TRACK 40 AUDIO
    TITLE "2:cjc093_2734"
    INDEX 01 00:54:42
  TRACK 41 AUDIO
    TITLE "0:"
    INDEX 01 00:55:42
  TRACK 42 AUDIO
    TITLE "3:cjc093_2735"
    INDEX 01 00:56:10
  TRACK 43 AUDIO
    TITLE "0:"
    INDEX 01 00:57:48
  TRACK 44 AUDIO
    TITLE "4:cjc093_2736"
    INDEX 01 00:57:66
  TRACK 45 AUDIO
    TITLE "0:"
    INDEX 01 01:01:62
  TRACK 46 AUDIO
    TITLE "2:cjc093_2737"
    INDEX 01 01:03:00
  TRACK 47 AUDIO
    TITLE "0:"
    INDEX 01 01:04:23
  TRACK 48 AUDIO
    TITLE "3:cjc093_2738"
    INDEX 01 01:04:43
  TRACK 49 AUDIO
    TITLE "0:"
    INDEX 01 01:06:63
  TRACK 50 AUDIO
    TITLE "4:cjc093_2739"
    INDEX 01 01:07:41
  TRACK 51 AUDIO
    TITLE "0:"
    INDEX 01 01:10:39
  TRACK 52 AUDIO
    TITLE "4:cjc093_2740"
    INDEX 01 01:11:05
  TRACK 53 AUDIO
    TITLE "0:"
    INDEX 01 01:13:61
  TRACK 54 AUDIO
    TITLE "2:cjc093_2741"
    INDEX 01 01:14:74
  TRACK 55 AUDIO
    TITLE "0:"
    INDEX 01 01:16:01
  TRACK 56 AUDIO
    TITLE "3:cjc093_2742"
    INDEX 01 01:16:32
  TRACK 57 AUDIO
    TITLE "0:"
    INDEX 01 01:17:53
  TRACK 58 AUDIO
    TITLE "4:cjc093_2743"
    INDEX 01 01:18:13
  TRACK 59 AUDIO
    TITLE "0:"
    INDEX 01 01:21:23
